#Comment line ignore any data following # character 
#Hierarchical Translation and Rotation (.htr) file 
[Header]	
#Header keywords are followed by a single value 
FileType HTR		#Single word string
DataType HTRS		#Translation followed by rotation and scale data
FileVersion 1		#integer
NumSegments 84		#integer
NumFrames 2		#integer
DataFrameRate 30		#integer, data frame rate in this file
EulerRotationOrder ZYX
CalibrationUnits mm
RotationUnits Degrees
GlobalAxisofGravity Y
BoneLengthAxis Y
ScaleFactor 1.00
[SegmentNames&Hierarchy]
#CHILD	PARENT
MASTER GLOBAL
root MASTER
chest root
L_mid_tent01 root
R_mid_tent01 root
spine01 root
Bip01_Neck chest
L_humerus chest
R_humerus chest
weapon_bone chest
Bip01_Head Bip01_Neck
eye_left_bone Bip01_Head
eye_right_bone Bip01_Head
L_forearm L_humerus
L_front_hand L_forearm
L_weapon_bone L_forearm
L_front_hand01_01 L_front_hand
L_front_hand02_01 L_front_hand
L_front_hand03_01 L_front_hand
L_front_hand01_02 L_front_hand01_01
L_front_hand02_02 L_front_hand02_01
L_front_hand03_02 L_front_hand03_01
R_forearm R_humerus
R_front_hand R_forearm
R_weapon_bone R_forearm
R_front_hand01_01 R_front_hand
R_front_hand02_01 R_front_hand
R_front_hand03_01 R_front_hand
R_front_hand01_02 R_front_hand01_01
R_front_hand02_02 R_front_hand02_01
R_front_hand03_02 R_front_hand03_01
null_rope01_connect L_mid_tent01
Rope1_Seg01 null_rope01_connect
Rope1_Seg02 Rope1_Seg01
Rope1_Seg03 Rope1_Seg02
Rope1_Seg04 Rope1_Seg03
Rope1_Seg05 Rope1_Seg04
Rope1_Seg06 Rope1_Seg05
Rope1_Seg07 Rope1_Seg06
Rope1_Seg09 Rope1_Seg07
L_mid_hand01 Rope1_Seg09
L_mid_hand02 Rope1_Seg09
L_mid_hand03 Rope1_Seg09
null_rope02_connect R_mid_tent01
Rope2_Seg01 null_rope02_connect
Rope2_Seg02 Rope2_Seg01
Rope2_Seg03 Rope2_Seg02
Rope2_Seg04 Rope2_Seg03
Rope2_Seg05 Rope2_Seg04
Rope2_Seg06 Rope2_Seg05
Rope2_Seg07 Rope2_Seg06
Rope2_Seg09 Rope2_Seg07
R_mid_hand01 Rope2_Seg09
R_mid_hand02 Rope2_Seg09
R_mid_hand03 Rope2_Seg09
spine02 spine01
spine03 spine02
pelvis spine03
null_rope03_connect pelvis
null_rope04_connect pelvis
Rope3_Seg01 null_rope03_connect
Rope3_Seg02 Rope3_Seg01
Rope3_Seg03 Rope3_Seg02
Rope3_Seg04 Rope3_Seg03
Rope3_Seg05 Rope3_Seg04
Rope3_Seg06 Rope3_Seg05
Rope3_Seg07 Rope3_Seg06
Rope3_Seg08 Rope3_Seg07
Rope3_Seg09 Rope3_Seg08
R_rear_hand01 Rope3_Seg09
R_rear_hand02 Rope3_Seg09
R_rear_hand03 Rope3_Seg09
Rope4_Seg01 null_rope04_connect
Rope4_Seg02 Rope4_Seg01
Rope4_Seg03 Rope4_Seg02
Rope4_Seg04 Rope4_Seg03
Rope4_Seg05 Rope4_Seg04
Rope4_Seg06 Rope4_Seg05
Rope4_Seg07 Rope4_Seg06
Rope4_Seg08 Rope4_Seg07
Rope4_Seg09 Rope4_Seg08
L_rear_hand01 Rope4_Seg09
L_rear_hand02 Rope4_Seg09
L_rear_hand03 Rope4_Seg09
[BasePosition]
#SegmentName Tx, Ty, Tz, Rx, Ry, Rz, BoneLength
MASTER 0.000000 0.000000 0.000000 -90.000000 0.000000 0.000000 10.000000 
root 0.000000 0.000000 0.000000 0.000000 0.000000 0.000000 10.000000 
chest 0.000000 0.000000 0.000000 0.000000 0.000000 0.000000 10.000000 
L_mid_tent01 0.000000 0.000000 0.000000 0.000000 0.000000 0.000000 10.000000 
R_mid_tent01 0.000000 0.000000 0.000000 0.000000 0.000000 0.000000 10.000000 
spine01 0.000000 0.000000 0.000000 0.000000 0.000000 0.000000 10.000000 
Bip01_Neck 0.000000 0.000000 0.000000 0.000000 0.000000 0.000000 10.000000 
L_humerus 0.000000 0.000000 0.000000 0.000000 0.000000 0.000000 10.000000 
R_humerus 0.000000 0.000000 0.000000 0.000000 0.000000 0.000000 10.000000 
weapon_bone 0.000000 0.000000 0.000000 0.000000 0.000000 0.000000 10.000000 
Bip01_Head 0.000000 0.000000 0.000000 0.000000 0.000000 0.000000 10.000000 
eye_left_bone 0.000000 0.000000 0.000000 0.000000 0.000000 0.000000 10.000000 
eye_right_bone 0.000000 0.000000 0.000000 0.000000 0.000000 0.000000 10.000000 
L_forearm 0.000000 0.000000 0.000000 0.000000 0.000000 0.000000 10.000000 
L_front_hand 0.000000 0.000000 0.000000 0.000000 0.000000 0.000000 10.000000 
L_weapon_bone 0.000000 0.000000 0.000000 0.000000 0.000000 0.000000 10.000000 
L_front_hand01_01 0.000000 0.000000 0.000000 0.000000 0.000000 0.000000 10.000000 
L_front_hand02_01 0.000000 0.000000 0.000000 0.000000 0.000000 0.000000 10.000000 
L_front_hand03_01 0.000000 0.000000 0.000000 0.000000 0.000000 0.000000 10.000000 
L_front_hand01_02 0.000000 0.000000 0.000000 0.000000 0.000000 0.000000 10.000000 
L_front_hand02_02 0.000000 0.000000 0.000000 0.000000 0.000000 0.000000 10.000000 
L_front_hand03_02 0.000000 0.000000 0.000000 0.000000 0.000000 0.000000 10.000000 
R_forearm 0.000000 0.000000 0.000000 0.000000 0.000000 0.000000 10.000000 
R_front_hand 0.000000 0.000000 0.000000 0.000000 0.000000 0.000000 10.000000 
R_weapon_bone 0.000000 0.000000 0.000000 0.000000 0.000000 0.000000 10.000000 
R_front_hand01_01 0.000000 0.000000 0.000000 0.000000 0.000000 0.000000 10.000000 
R_front_hand02_01 0.000000 0.000000 0.000000 0.000000 0.000000 0.000000 10.000000 
R_front_hand03_01 0.000000 0.000000 0.000000 0.000000 0.000000 0.000000 10.000000 
R_front_hand01_02 0.000000 0.000000 0.000000 0.000000 0.000000 0.000000 10.000000 
R_front_hand02_02 0.000000 0.000000 0.000000 0.000000 0.000000 0.000000 10.000000 
R_front_hand03_02 0.000000 0.000000 0.000000 0.000000 0.000000 0.000000 10.000000 
null_rope01_connect 0.000000 0.000000 0.000000 0.000000 0.000000 0.000000 10.000000 
Rope1_Seg01 0.000000 0.000000 0.000000 0.000000 0.000000 0.000000 10.000000 
Rope1_Seg02 0.000000 0.000000 0.000000 0.000000 0.000000 0.000000 10.000000 
Rope1_Seg03 0.000000 0.000000 0.000000 0.000000 0.000000 0.000000 10.000000 
Rope1_Seg04 0.000000 0.000000 0.000000 0.000000 0.000000 0.000000 10.000000 
Rope1_Seg05 0.000000 0.000000 0.000000 0.000000 0.000000 0.000000 10.000000 
Rope1_Seg06 0.000000 0.000000 0.000000 0.000000 0.000000 0.000000 10.000000 
Rope1_Seg07 0.000000 0.000000 0.000000 0.000000 0.000000 0.000000 10.000000 
Rope1_Seg09 0.000000 0.000000 0.000000 0.000000 0.000000 0.000000 10.000000 
L_mid_hand01 0.000000 0.000000 0.000000 0.000000 0.000000 0.000000 10.000000 
L_mid_hand02 0.000000 0.000000 0.000000 0.000000 0.000000 0.000000 10.000000 
L_mid_hand03 0.000000 0.000000 0.000000 0.000000 0.000000 0.000000 10.000000 
null_rope02_connect 0.000000 0.000000 0.000000 0.000000 0.000000 0.000000 10.000000 
Rope2_Seg01 0.000000 0.000000 0.000000 0.000000 0.000000 0.000000 10.000000 
Rope2_Seg02 0.000000 0.000000 0.000000 0.000000 0.000000 0.000000 10.000000 
Rope2_Seg03 0.000000 0.000000 0.000000 0.000000 0.000000 0.000000 10.000000 
Rope2_Seg04 0.000000 0.000000 0.000000 0.000000 0.000000 0.000000 10.000000 
Rope2_Seg05 0.000000 0.000000 0.000000 0.000000 0.000000 0.000000 10.000000 
Rope2_Seg06 0.000000 0.000000 0.000000 0.000000 0.000000 0.000000 10.000000 
Rope2_Seg07 0.000000 0.000000 0.000000 0.000000 0.000000 0.000000 10.000000 
Rope2_Seg09 0.000000 0.000000 0.000000 0.000000 0.000000 0.000000 10.000000 
R_mid_hand01 0.000000 0.000000 0.000000 0.000000 0.000000 0.000000 10.000000 
R_mid_hand02 0.000000 0.000000 0.000000 0.000000 0.000000 0.000000 10.000000 
R_mid_hand03 0.000000 0.000000 0.000000 0.000000 0.000000 0.000000 10.000000 
spine02 0.000000 0.000000 0.000000 0.000000 0.000000 0.000000 10.000000 
spine03 0.000000 0.000000 0.000000 0.000000 0.000000 0.000000 10.000000 
pelvis 0.000000 0.000000 0.000000 0.000000 0.000000 0.000000 10.000000 
null_rope03_connect 0.000000 0.000000 0.000000 0.000000 0.000000 0.000000 10.000000 
null_rope04_connect 0.000000 0.000000 0.000000 0.000000 0.000000 0.000000 10.000000 
Rope3_Seg01 0.000000 0.000000 0.000000 0.000000 0.000000 0.000000 10.000000 
Rope3_Seg02 0.000000 0.000000 0.000000 0.000000 0.000000 0.000000 10.000000 
Rope3_Seg03 0.000000 0.000000 0.000000 0.000000 0.000000 0.000000 10.000000 
Rope3_Seg04 0.000000 0.000000 0.000000 0.000000 0.000000 0.000000 10.000000 
Rope3_Seg05 0.000000 0.000000 0.000000 0.000000 0.000000 0.000000 10.000000 
Rope3_Seg06 0.000000 0.000000 0.000000 0.000000 0.000000 0.000000 10.000000 
Rope3_Seg07 0.000000 0.000000 0.000000 0.000000 0.000000 0.000000 10.000000 
Rope3_Seg08 0.000000 0.000000 0.000000 0.000000 0.000000 0.000000 10.000000 
Rope3_Seg09 0.000000 0.000000 0.000000 0.000000 0.000000 0.000000 10.000000 
R_rear_hand01 0.000000 0.000000 0.000000 0.000000 0.000000 0.000000 10.000000 
R_rear_hand02 0.000000 0.000000 0.000000 0.000000 0.000000 0.000000 10.000000 
R_rear_hand03 0.000000 0.000000 0.000000 0.000000 0.000000 0.000000 10.000000 
Rope4_Seg01 0.000000 0.000000 0.000000 0.000000 0.000000 0.000000 10.000000 
Rope4_Seg02 0.000000 0.000000 0.000000 0.000000 0.000000 0.000000 10.000000 
Rope4_Seg03 0.000000 0.000000 0.000000 0.000000 0.000000 0.000000 10.000000 
Rope4_Seg04 0.000000 0.000000 0.000000 0.000000 0.000000 0.000000 10.000000 
Rope4_Seg05 0.000000 0.000000 0.000000 0.000000 0.000000 0.000000 10.000000 
Rope4_Seg06 0.000000 0.000000 0.000000 0.000000 0.000000 0.000000 10.000000 
Rope4_Seg07 0.000000 0.000000 0.000000 0.000000 0.000000 0.000000 10.000000 
Rope4_Seg08 0.000000 0.000000 0.000000 0.000000 0.000000 0.000000 10.000000 
Rope4_Seg09 0.000000 0.000000 0.000000 0.000000 0.000000 0.000000 10.000000 
L_rear_hand01 0.000000 0.000000 0.000000 0.000000 0.000000 0.000000 10.000000 
L_rear_hand02 0.000000 0.000000 0.000000 0.000000 0.000000 0.000000 10.000000 
L_rear_hand03 0.000000 0.000000 0.000000 0.000000 0.000000 0.000000 10.000000 
#Beginning of Data. Separated by tabs
#Fr	Tx	Ty	Tz	Rx	Ry	Rz	SF
[MASTER]
6 -0.000092 625.000244 0.000000 0.001660 0.001660 0.001660 625.000244
7 -0.000111 750.000000 0.000000 0.001660 0.001660 0.001660 750.000000
[root]
6 -10.015343 -65.085915 1481.774048 -91.728905 -11.584501 -89.471626 1483.236694
7 -9.952696 -72.566216 1484.450439 -91.728897 -11.584496 -89.471619 1486.256470
[chest]
6 -84.512650 -34.090519 0.000000 -2.183310 -0.089479 167.086868 91.129311
7 -84.512650 -34.090519 0.000000 -2.182067 -0.102148 166.937744 91.129311
[L_mid_tent01]
6 27.299076 22.179258 -249.918686 -20.536007 10.356464 13.621904 252.381683
7 27.299080 22.179258 -249.918686 -20.512083 9.994160 13.760380 252.381683
[R_mid_tent01]
6 23.228794 24.509907 226.238495 -165.426163 -14.926413 24.883169 228.744751
7 23.228794 24.509907 226.238495 -165.472580 -14.256297 25.062393 228.744751
[spine01]
6 -0.361383 -0.195265 0.000000 0.001953 0.001303 22.581161 0.410763
7 -0.361383 -0.195265 0.000000 0.001953 0.001301 22.656805 0.410763
[Bip01_Neck]
6 165.484543 71.581718 0.000119 176.643677 -1.657967 43.431911 180.302734
7 165.484543 71.581718 0.000119 176.643677 -1.657966 43.431908 180.302734
[L_humerus]
6 -13.983130 -135.272980 -120.471481 -143.436554 85.776085 -53.229187 181.680161
7 -13.983130 -135.272980 -120.471481 -166.724487 79.569153 -76.442963 181.680161
[R_humerus]
6 -13.983309 -135.273102 125.287651 120.390678 -80.740845 -24.319511 184.909012
7 -13.983309 -135.273102 125.287651 146.392776 -76.805588 -50.234444 184.909012
[weapon_bone]
6 235.964890 -300.705902 0.000000 0.000000 -89.951546 -128.212341 382.234833
7 235.964890 -300.705902 0.000000 0.000000 -89.951546 -128.212341 382.234833
[Bip01_Head]
6 213.437027 185.735123 11.520631 4.968981 4.431880 -43.869911 283.170654
7 213.435608 185.739075 11.469358 4.968390 5.247278 -43.853752 283.170105
[eye_left_bone]
6 -24.626970 125.451866 -64.772606 0.000000 -90.000000 -99.840431 143.318359
7 -24.626970 125.451866 -64.772606 0.000000 -90.000000 -99.840431 143.318359
[eye_right_bone]
6 -24.626970 125.451866 64.327362 0.000000 -89.980217 80.156380 143.117676
7 -24.626970 125.451866 64.327362 0.000000 -89.965736 80.156380 143.117676
[L_forearm]
6 322.776093 0.000000 -0.000119 0.000419 -0.002309 -110.579201 322.776093
7 322.776093 0.000000 -0.000119 0.000422 -0.002309 -110.720451 322.776093
[L_front_hand]
6 241.149185 -0.042021 -3.300071 -178.667953 -1.835447 -27.422350 241.171753
7 241.149185 -0.042021 -3.300071 -178.667953 -1.835447 -27.422342 241.171753
[L_weapon_bone]
6 156.183838 0.000000 0.000000 0.000014 0.000007 0.000001 156.183838
7 156.183838 0.000000 0.000000 0.000014 0.000007 0.000001 156.183838
[L_front_hand01_01]
6 86.095154 20.947098 -0.655860 -0.349230 -0.490139 73.139862 88.609184
7 86.095154 20.947098 -0.655860 -0.335131 -0.500211 71.723785 88.609184
[L_front_hand02_01]
6 86.935165 -11.437475 24.513514 151.025055 -58.854893 -57.448074 91.046425
7 86.935165 -11.437475 24.513514 149.028946 -58.148323 -55.100948 91.046425
[L_front_hand03_01]
6 86.637497 -14.123976 -20.424902 -150.781433 57.074539 -58.996449 90.126129
7 86.637497 -14.123976 -20.424902 -148.918808 56.366669 -56.764694 90.126129
[L_front_hand01_02]
6 71.020905 -0.000179 0.000030 0.000318 -0.002326 -105.574486 71.020905
7 71.020905 -0.000179 0.000030 0.000317 -0.002326 -105.537254 71.020905
[L_front_hand02_02]
6 71.020927 -0.000119 0.000060 0.000318 -0.002326 -105.574486 71.020927
7 71.020927 -0.000119 0.000060 0.000317 -0.002326 -105.537254 71.020927
[L_front_hand03_02]
6 71.020905 -0.000060 0.000060 0.000318 -0.002326 -105.574486 71.020905
7 71.020905 -0.000060 0.000060 0.000317 -0.002326 -105.537254 71.020905
[R_forearm]
6 322.776428 -0.000060 0.000030 0.201428 0.067216 -109.231773 322.776428
7 322.776428 -0.000060 0.000030 0.201335 0.067493 -109.389412 322.776428
[R_front_hand]
6 238.847015 -0.006795 2.210259 -2.635298 -10.645461 -26.312504 238.857239
7 238.847015 -0.006795 2.210259 -2.635299 -10.645460 -26.312500 238.857239
[R_weapon_bone]
6 155.664093 0.002503 -0.000030 0.003487 0.001180 -90.988930 155.664078
7 155.664093 0.002503 -0.000030 0.003487 0.001180 -90.988930 155.664078
[R_front_hand01_01]
6 87.624611 14.231146 22.918642 -151.601074 -59.040489 58.224773 91.683487
7 87.624611 14.231146 22.918642 -149.707169 -58.394512 56.007454 91.683487
[R_front_hand02_01]
6 89.356956 14.367283 -19.491137 151.761566 57.399368 60.393955 92.579636
7 89.356956 14.367283 -19.491137 149.983459 56.758793 58.275940 92.579636
[R_front_hand03_01]
6 87.286232 -22.307278 -0.143439 0.146836 -0.431871 -73.769867 90.091743
7 87.286232 -22.307278 -0.143439 0.134949 -0.432464 -72.452232 90.091743
[R_front_hand01_02]
6 71.020905 0.000060 0.000119 0.002323 -0.000334 106.381714 71.020905
7 71.020905 0.000060 0.000119 0.002323 -0.000334 106.381706 71.020905
[R_front_hand02_02]
6 71.020844 -0.000030 -0.000119 0.002323 -0.000334 106.381714 71.020836
7 71.020844 -0.000030 -0.000119 0.002323 -0.000334 106.381706 71.020836
[R_front_hand03_02]
6 71.020905 0.000000 0.000030 0.002323 -0.000334 106.381714 71.020905
7 71.020905 0.000000 0.000030 0.002323 -0.000334 106.381706 71.020905
[null_rope01_connect]
6 328.732483 0.000000 -0.000238 -158.258484 -65.608978 -115.482124 328.732483
7 328.732483 0.000000 -0.000238 -159.107162 -65.773216 -114.708588 328.732483
[Rope1_Seg01]
6 -0.000005 -0.000072 0.000134 101.338951 0.922441 -81.582260 0.000152
7 -0.000006 -0.000078 0.000130 102.575256 0.223339 -80.447571 0.000152
[Rope1_Seg02]
6 139.999863 -0.000179 0.000000 -2.029067 -1.700833 -1.160467 139.999863
7 139.999863 -0.000179 0.000000 -2.267944 -2.054685 -1.164861 139.999863
[Rope1_Seg03]
6 139.999924 0.000060 -0.000060 -3.405419 -2.879916 -1.872777 139.999924
7 139.999924 0.000060 -0.000060 -3.479770 -3.119352 -1.730115 139.999924
[Rope1_Seg04]
6 139.999924 -0.000060 -0.000119 -0.737897 -0.466919 -0.569055 139.999924
7 139.999924 -0.000060 -0.000119 -1.208924 -0.896930 -0.785209 139.999924
[Rope1_Seg05]
6 139.999832 0.000119 -0.000060 4.169308 3.544398 2.230198 139.999832
7 139.999832 0.000119 -0.000060 3.578648 3.244585 1.706928 139.999832
[Rope1_Seg06]
6 139.999954 0.000119 -0.000060 1.564573 1.455297 0.768466 139.999954
7 139.999954 0.000119 -0.000060 1.343911 1.325316 0.586041 139.999954
[Rope1_Seg07]
6 139.999985 0.000060 0.000000 0.738244 0.706695 0.345008 139.999985
7 139.999985 0.000060 0.000000 0.616292 0.628447 0.247389 139.999985
[Rope1_Seg09]
6 121.602913 0.000119 -0.000089 -89.793175 -1.359789 0.847147 121.602913
7 121.602913 0.000119 -0.000089 -89.793175 -1.359789 0.847147 121.602913
[L_mid_hand01]
6 103.859421 1.038730 8.195221 112.493240 -49.600185 -18.031643 104.187431
7 103.859421 1.038730 8.195221 110.549706 -45.072773 -15.392938 104.187431
[L_mid_hand02]
6 105.572853 -4.139662 -10.864139 -152.303986 36.371010 -47.886745 106.211075
7 105.572853 -4.139662 -10.864139 -149.303925 33.991974 -42.687023 106.211075
[L_mid_hand03]
6 104.641464 17.579376 -3.913581 -12.027911 14.512395 53.523804 106.179977
7 104.641464 17.579376 -3.913581 -13.209491 13.449579 48.630810 106.179977
[null_rope02_connect]
6 328.732849 0.000179 -0.000119 -145.647369 70.579552 -40.243713 328.732849
7 328.732849 0.000179 -0.000119 -147.022812 71.102188 -41.541840 328.732849
[Rope2_Seg01]
6 0.000081 0.000062 0.000000 -39.289494 2.504337 -90.544174 0.000102
7 0.000082 0.000051 0.000000 -39.855297 2.120867 -91.316177 0.000097
[Rope2_Seg02]
6 139.999741 -0.000060 -0.000119 3.976080 2.575116 4.334108 139.999756
7 139.999741 -0.000060 -0.000119 3.987417 3.026950 4.291082 139.999756
[Rope2_Seg03]
6 140.000107 0.000030 0.000000 6.877042 4.966260 7.555520 140.000107
7 140.000107 0.000030 0.000000 6.601152 5.639472 7.290162 140.000107
[Rope2_Seg04]
6 139.999802 0.000000 -0.000060 -3.880149 -3.491382 -4.421126 139.999802
7 139.999802 0.000000 -0.000060 -3.673292 -3.864152 -4.257122 139.999802
[Rope2_Seg05]
6 139.999985 -0.000060 0.000119 -8.060814 -6.412076 -9.225747 139.999985
7 139.999985 -0.000060 0.000119 -7.623722 -7.006507 -8.652959 139.999985
[Rope2_Seg06]
6 139.999893 -0.000030 -0.000119 -3.273334 -1.858490 -3.766068 139.999893
7 139.999893 -0.000030 -0.000119 -3.155563 -2.110137 -3.523437 139.999893
[Rope2_Seg07]
6 139.999893 0.000060 -0.000060 -2.006651 -0.984147 -2.330917 139.999893
7 139.999893 0.000060 -0.000060 -1.964962 -1.154096 -2.194789 139.999893
[Rope2_Seg09]
6 121.338966 0.000089 -0.000060 33.793236 -1.359788 -0.847141 121.338966
7 121.338966 0.000089 -0.000060 33.793236 -1.359788 -0.847141 121.338966
[R_mid_hand01]
6 104.680779 11.144459 -10.335981 -25.740593 41.350704 56.606117 105.778534
7 104.680779 11.144459 -10.335981 -28.447895 39.731529 52.443096 105.778534
[R_mid_hand02]
6 104.070427 2.443552 8.231699 61.371151 -58.827457 25.571609 104.424065
7 104.070427 2.443552 8.231699 63.907383 -55.672989 22.555904 104.424065
[R_mid_hand03]
6 106.028137 -11.221827 -5.996406 -174.179749 14.727765 -65.439743 106.788818
7 106.028137 -11.221827 -5.996406 -173.262527 14.339042 -61.789948 106.788818
[spine02]
6 129.756927 0.001550 0.000119 0.478034 -4.031582 -14.589011 129.756927
7 129.756927 0.001550 0.000119 0.490683 -4.030020 -14.808994 129.756927
[spine03]
6 78.614014 0.081635 -4.899004 1.963992 3.798851 17.515518 78.766556
7 78.614006 0.081635 -4.899005 1.972745 3.793459 17.643412 78.766541
[pelvis]
6 169.435242 0.051022 0.000000 -0.068670 -0.178384 16.198400 169.435257
7 169.435242 0.051022 0.000000 -0.069105 -0.178216 16.478197 169.435257
[null_rope03_connect]
6 -1.257226 -2.466202 137.391083 0.000000 -89.483383 59.879204 137.418976
7 -1.257226 -2.466202 137.391083 0.000000 -89.492165 59.608959 137.418976
[null_rope04_connect]
6 -1.259640 -2.480268 -137.844437 0.000000 -89.483383 59.879204 137.872513
7 -1.259640 -2.480268 -137.844437 0.000000 -89.492165 59.608959 137.872513
[Rope3_Seg01]
6 0.000010 0.000038 -0.000114 17.890957 24.962280 -79.118019 0.000121
7 0.000010 0.000038 -0.000114 17.921843 23.967394 -78.800056 0.000121
[Rope3_Seg02]
6 139.999924 -0.000119 0.000060 0.141928 -2.002995 -3.493553 139.999924
7 139.999924 -0.000119 0.000060 0.181877 -1.916869 -4.261197 139.999924
[Rope3_Seg03]
6 139.999924 -0.000119 0.000119 0.120399 -1.968888 -3.740568 139.999924
7 139.999924 -0.000119 0.000119 0.107184 -1.790857 -4.531996 139.999924
[Rope3_Seg04]
6 139.999924 0.000119 0.000000 -0.602611 1.260273 -7.607684 139.999924
7 139.999924 0.000119 0.000000 -0.875999 1.337622 -8.871034 139.999924
[Rope3_Seg05]
6 139.999924 -0.000238 0.000060 0.728841 -4.413904 -1.145023 139.999924
7 139.999924 -0.000238 0.000060 0.817722 -4.201676 -0.929090 139.999924
[Rope3_Seg06]
6 139.999893 -0.000119 -0.000060 2.507228 -12.539908 8.977802 139.999893
7 139.999893 -0.000119 -0.000060 2.743946 -11.899159 10.460061 139.999893
[Rope3_Seg07]
6 139.999771 0.000060 -0.000119 2.051861 -9.166225 7.161612 139.999771
7 139.999771 0.000060 -0.000119 1.948716 -8.765917 8.457627 139.999771
[Rope3_Seg08]
6 139.999985 -0.000060 0.000000 1.440198 -5.016213 3.795993 139.999985
7 139.999985 -0.000060 0.000000 1.285699 -4.791790 4.473638 139.999985
[Rope3_Seg09]
6 90.185997 -0.000179 -0.000060 89.793228 -1.359877 -0.847183 90.185997
7 90.185997 -0.000179 -0.000060 89.793228 -1.359877 -0.847183 90.185997
[R_rear_hand01]
6 103.366196 -6.073594 -10.757982 -171.684540 23.302565 -59.125771 104.101845
7 103.366196 -6.073594 -10.757982 -169.896027 22.621880 -54.548431 104.101845
[R_rear_hand02]
6 100.509819 12.039542 -7.992327 -21.930750 32.777496 56.381863 101.543350
7 100.509819 12.039542 -7.992327 -24.381289 31.099262 51.752331 101.543350
[R_rear_hand03]
6 101.539970 5.215704 5.435467 79.009171 -58.663548 13.282337 101.819031
7 101.539970 5.215704 5.435467 80.187729 -54.464619 11.876325 101.819031
[Rope4_Seg01]
6 0.000010 0.000038 -0.000114 -93.169327 28.819998 -85.798927 0.000121
7 0.000010 0.000038 -0.000114 -93.045876 29.304913 -85.793854 0.000121
[Rope4_Seg02]
6 139.999985 0.000060 0.000119 -0.191219 -0.002258 -2.347707 139.999985
7 139.999985 0.000060 0.000119 -0.242666 0.026492 -2.874714 139.999985
[Rope4_Seg03]
6 139.999924 0.000000 -0.000238 -0.215335 -0.032408 -2.332813 139.999924
7 139.999924 0.000000 -0.000238 -0.290530 0.011703 -2.867275 139.999924
[Rope4_Seg04]
6 139.999985 0.000000 0.000119 0.023909 -1.012071 -0.839362 139.999985
7 139.999985 0.000000 0.000119 -0.120910 -0.717401 -1.753408 139.999985
[Rope4_Seg05]
6 139.999802 -0.000060 -0.000119 -0.650009 0.928736 -4.074963 139.999802
7 139.999802 -0.000060 -0.000119 -0.667776 0.724950 -4.118414 139.999802
[Rope4_Seg06]
6 139.999924 0.000000 0.000060 -1.244385 2.828045 -6.117320 139.999924
7 139.999924 0.000000 0.000060 -1.114564 2.226468 -5.448725 139.999924
[Rope4_Seg07]
6 139.999802 0.000000 0.000000 -0.648919 1.742234 -3.728502 139.999802
7 139.999802 0.000000 0.000000 -0.647038 1.456251 -3.538685 139.999802
[Rope4_Seg08]
6 139.999924 0.000000 0.000119 -1.886200 0.960894 -2.136344 139.999924
7 139.999924 0.000000 0.000119 -1.903025 0.817714 -2.099457 139.999924
[Rope4_Seg09]
6 90.185791 0.000060 0.000060 -135.617828 2.228885 0.850567 90.185791
7 90.185791 0.000060 0.000060 -135.617828 2.228885 0.850567 90.185791
[L_rear_hand01]
6 101.696655 -8.392275 -7.654577 -30.719053 -24.879360 141.681381 102.329041
7 101.696655 -8.392275 -7.654577 -31.684452 -23.583008 144.025742 102.329041
[L_rear_hand02]
6 102.726799 -1.568258 5.773216 82.428497 41.230476 171.131027 102.900848
7 102.726799 -1.568258 5.773216 82.701553 38.753956 171.553619 102.900848
[L_rear_hand03]
6 104.552910 9.721220 -10.420293 -164.822937 -19.676035 -139.457687 105.519653
7 104.552910 9.721220 -10.420293 -163.975403 -19.004421 -142.009338 105.519653
